<svg xmlns="http://www.w3.org/2000/svg" version="1.1" xmlns:xlink="http://www.w3.org/1999/xlink" xmlns:svgjs="http://svgjs.dev/svgjs" width="1000" height="165" viewBox="0 0 1000 165"><g transform="matrix(1,0,0,1,0.16994382022460286,0.19296610169496375)"><svg viewBox="0 0 356 59" data-background-color="#ffffff" preserveAspectRatio="xMidYMid meet" height="165" width="1000" xmlns="http://www.w3.org/2000/svg" xmlns:xlink="http://www.w3.org/1999/xlink"><g id="tight-bounds" transform="matrix(1,0,0,1,-0.06049999999996203,-0.06900000000001683)"><svg viewBox="0 0 356.12052 59.13791332869404" height="59.13791332869404" width="356.12052"><g><svg viewBox="0 0 356.12052 59.13791332869404" height="59.13791332869404" width="356.12052"><g><svg viewBox="0 0 356.12052 59.13791332869404" height="59.13791332869404" width="356.12052"><g><path d="M0 59.138v-59.138h356.121v59.138z" fill="#000000" stroke="transparent" stroke-width="0" rx="0%" data-fill-palette-color="tertiary"></path><path d="M3.283 55.855v-52.572h349.554v52.572z" fill="#ffffff" stroke="transparent" stroke-width="0" rx="0%" data-fill-palette-color="quaternary"></path><path d="M9.85 49.288v-39.438h336.421v39.438z" fill="#000000" stroke="transparent" stroke-width="0" data-fill-palette-color="tertiary"></path></g><g transform="matrix(1,0,0,1,19.69974,19.69974)" id="textblocktransform"><svg viewBox="0 0 316.72104 19.73843332869404" height="19.73843332869404" width="316.72104" id="textblock"><g><svg viewBox="0 0 316.72104 19.73843332869404" height="19.73843332869404" width="316.72104"><g transform="matrix(1,0,0,1,0,0)"><svg width="316.72104" viewBox="0.800000011920929 -39.599998474121094 646.6000366210938 40.29999923706055" height="19.73843332869404" data-palette-color="#ffffff"><path d="M19.7 0.7Q11.85 0.7 7.58-2.75 3.3-6.2 3.3-13.95L3.3-13.95 3.3-30.7 0.8-30.7 0.8-38.9 19.3-38.9 19.3-30.7 17.3-30.7 17.3-11.4Q17.3-9.75 18.03-8.97 18.75-8.2 20.2-8.2L20.2-8.2Q21.65-8.2 22.38-8.97 23.1-9.75 23.1-11.4L23.1-11.4 23.1-30.7 21.1-30.7 21.1-38.9 38.25-38.9 38.25-30.7 35.75-30.7 35.75-13.95Q35.75-6.2 31.6-2.75 27.45 0.7 19.7 0.7L19.7 0.7ZM40.05 0L40.05-8.2 42.55-8.2 42.55-30.7 40.05-30.7 40.05-38.9 63-38.9Q69.45-38.9 72.85-36.25 76.25-33.6 76.25-27.65L76.25-27.65Q76.25-24.3 74.9-21.85 73.55-19.4 71.05-18.45L71.05-18.45 71.1-17.95Q75.9-17.2 75.9-12.05L75.9-12.05 75.9-8.2 78.25-8.2 78.25 0 62.4 0 62.4-11.75Q62.4-13.7 61.82-14.7 61.25-15.7 60.02-16.05 58.8-16.4 56.55-16.4L56.55-16.4 56.55-8.2 59.85-8.2 59.85 0 40.05 0ZM56.55-22.5L59.25-22.5Q60.7-22.5 61.42-23.28 62.15-24.05 62.15-25.7L62.15-25.7 62.15-27.5Q62.15-29.15 61.42-29.93 60.7-30.7 59.25-30.7L59.25-30.7 56.55-30.7 56.55-22.5ZM80.05 0L80.05-8.2 82.55-8.2 82.55-30.7 80.05-30.7 80.05-38.9 103-38.9Q109.25-38.9 112.75-36.35 116.25-33.8 116.25-29.05L116.25-29.05Q116.25-26.1 114.85-24.08 113.45-22.05 111.57-21.03 109.7-20 107.95-19.65L107.95-19.65 107.95-19.15Q111.5-18.8 114.35-16.9 117.2-15 117.2-10.1L117.2-10.1Q117.2-4.85 113.25-2.43 109.3 0 103 0L103 0 80.05 0ZM96.55-22.5L99.25-22.5Q100.7-22.5 101.42-23.28 102.15-24.05 102.15-25.7L102.15-25.7 102.15-27.5Q102.15-29.15 101.42-29.93 100.7-30.7 99.25-30.7L99.25-30.7 96.55-30.7 96.55-22.5ZM96.55-8.2L99.6-8.2Q101.05-8.2 101.77-8.97 102.5-9.75 102.5-11.4L102.5-11.4 102.5-13.6Q102.5-15.25 101.77-16.03 101.05-16.8 99.6-16.8L99.6-16.8 96.55-16.8 96.55-8.2ZM147.04-38.9L155.49-8.2 157.49-8.2 157.49 0 137.89 0 137.89-8.2 140.89-8.2 140.09-12.2 133.29-12.2 132.49-8.2 135.49-8.2 135.49 0 118.39 0 118.39-8.2 120.39-8.2 128.84-38.9 147.04-38.9ZM136.44-27.45L134.39-17.5 138.99-17.5 136.94-27.45 136.44-27.45ZM187.89-30.7L187.89-38.9 204.29-38.9 204.29-30.7 201.79-30.7 201.79 0 187.74 0 173.09-22.55 173.09-8.2 175.49-8.2 175.49 0 159.09 0 159.09-8.2 161.59-8.2 161.59-30.7 159.09-30.7 159.09-38.9 177.14-38.9 190.29-18.85 190.29-30.7 187.89-30.7ZM236.69 0.7Q231.89 0.7 227.61-0.13 223.34-0.95 221.04-2L221.04-2 221.04-11.9 232.04-11.9Q232.04-10.35 232.74-9.65 233.44-8.95 235.29-8.95L235.29-8.95Q236.84-8.95 237.51-9.43 238.19-9.9 238.19-10.85L238.19-10.85Q238.19-11.65 237.54-12.23 236.89-12.8 235.29-13.4L235.29-13.4 230.99-14.9Q225.44-17 223.01-19.85 220.59-22.7 220.59-27.55L220.59-27.55Q220.59-33.45 224.46-36.52 228.34-39.6 237.39-39.6L237.39-39.6Q241.74-39.6 245.56-38.73 249.39-37.85 251.74-36.4L251.74-36.4 251.74-27.45 241.74-27.45Q241.74-29.95 238.64-29.95L238.64-29.95Q237.14-29.95 236.51-29.58 235.89-29.2 235.89-28.25L235.89-28.25Q235.89-27.4 236.61-26.9 237.34-26.4 238.99-25.85L238.99-25.85 243.34-24.35Q248.64-22.55 251.06-19.68 253.49-16.8 253.49-12.15L253.49-12.15Q253.49-5.8 249.21-2.55 244.94 0.7 236.69 0.7L236.69 0.7ZM254.88 0L254.88-8.2 257.38-8.2 257.38-30.7 254.88-30.7 254.88-38.9 276.83-38.9Q283.28-38.9 286.68-36.13 290.08-33.35 290.08-27.15L290.08-27.15Q290.08-20.95 286.68-18.18 283.28-15.4 276.83-15.4L276.83-15.4 271.38-15.4 271.38-8.2 276.18-8.2 276.18 0 254.88 0ZM271.38-22.5L273.08-22.5Q275.98-22.5 275.98-25.7L275.98-25.7 275.98-27.5Q275.98-29.15 275.26-29.93 274.53-30.7 273.08-30.7L273.08-30.7 271.38-30.7 271.38-22.5ZM310.78 0L291.78 0 291.78-8.2 294.28-8.2 294.28-30.7 291.78-30.7 291.78-38.9 310.78-38.9 310.78-30.7 308.28-30.7 308.28-8.2 310.78-8.2 310.78 0ZM332.18 0.7Q322.73 0.7 317.6-4.1 312.48-8.9 312.48-19.45L312.48-19.45Q312.48-39.6 332.08-39.6L332.08-39.6Q336.83-39.6 340.9-38.45 344.98-37.3 346.98-35.9L346.98-35.9 346.98-23.4 334.98-23.4 334.98-27Q334.98-28.9 334.13-29.8 333.28-30.7 331.58-30.7L331.58-30.7Q329.88-30.7 329.03-29.8 328.18-28.9 328.18-27L328.18-27 328.18-11.9Q328.18-10 329.03-9.1 329.88-8.2 331.58-8.2L331.58-8.2Q333.28-8.2 334.13-9.1 334.98-10 334.98-11.9L334.98-11.9 334.98-15.95 346.98-15.95 346.98-3Q344.93-1.6 340.9-0.45 336.88 0.7 332.18 0.7L332.18 0.7ZM382.63 0L348.88 0 348.88-8.2 351.38-8.2 351.38-30.7 348.88-30.7 348.88-38.9 382.63-38.9 382.63-23.8 371.43-23.8 371.43-30.7 365.38-30.7 365.38-22.8 369.78-22.8 369.78-17.1 365.38-17.1 365.38-8.2 371.43-8.2 371.43-16.1 382.63-16.1 382.63 0ZM399.52 0L399.52-8.2 402.02-8.2 402.02-30.65 399.52-30.65 399.52-38.9 419.82-38.9Q428.17-38.9 433.1-34.33 438.02-29.75 438.02-19.45L438.02-19.45Q438.02-9.15 433.1-4.58 428.17 0 419.82 0L419.82 0 399.52 0ZM416.02-8.2L418.92-8.2Q420.62-8.2 421.47-9.1 422.32-10 422.32-11.9L422.32-11.9 422.32-27Q422.32-30.7 418.92-30.7L418.92-30.7 416.02-30.7 416.02-8.2ZM473.47 0L439.72 0 439.72-8.2 442.22-8.2 442.22-30.7 439.72-30.7 439.72-38.9 473.47-38.9 473.47-23.8 462.27-23.8 462.27-30.7 456.22-30.7 456.22-22.8 460.62-22.8 460.62-17.1 456.22-17.1 456.22-8.2 462.27-8.2 462.27-16.1 473.47-16.1 473.47 0ZM506.31 0L475.37 0 475.37-8.2 477.87-8.2 477.87-30.7 475.37-30.7 475.37-38.9 496.47-38.9 496.47-30.7 491.87-30.7 491.87-8.2 496.37-8.2 496.37-12.8 506.31-12.8 506.31 0ZM527.01 0L508.01 0 508.01-8.2 510.51-8.2 510.51-30.7 508.01-30.7 508.01-38.9 527.01-38.9 527.01-30.7 524.51-30.7 524.51-8.2 527.01-8.2 527.01 0ZM566.71-19.95L566.71-12.5 564.21-12.5 564.21-2.5Q562.01-1.25 557.78-0.28 553.56 0.7 548.66 0.7L548.66 0.7Q539.31 0.7 534.01-4.23 528.71-9.15 528.71-19.45L528.71-19.45Q528.71-30 533.99-34.8 539.26-39.6 549.06-39.6L549.06-39.6Q553.81-39.6 557.96-38.6 562.11-37.6 564.21-36.35L564.21-36.35 564.21-24.4 551.71-24.4 551.71-26.75Q551.71-28.85 550.84-29.78 549.96-30.7 548.06-30.7L548.06-30.7Q546.16-30.7 545.28-29.78 544.41-28.85 544.41-26.75L544.41-26.75 544.41-12.15Q544.41-10.05 545.28-9.13 546.16-8.2 548.06-8.2L548.06-8.2Q549.96-8.2 550.84-9.13 551.71-10.05 551.71-12.15L551.71-12.15 551.71-12.5 549.01-12.5 549.01-19.95 566.71-19.95ZM608.11-38.9L608.11-30.7 605.61-30.7 605.61-8.2 608.11-8.2 608.11 0 589.21 0 589.21-8.2 591.61-8.2 591.61-16.45 584.61-16.45 584.61-8.2 587.01-8.2 587.01 0 568.11 0 568.11-8.2 570.61-8.2 570.61-30.7 568.11-30.7 568.11-38.9 587.01-38.9 587.01-30.7 584.61-30.7 584.61-23.1 591.61-23.1 591.61-30.7 589.21-30.7 589.21-38.9 608.11-38.9ZM647.4-38.9L647.4-26.8 638.8-26.8 638.8-30.7 635.6-30.7 635.6-8.2 639.1-8.2 639.1 0 618.1 0 618.1-8.2 621.6-8.2 621.6-30.7 618.4-30.7 618.4-26.8 609.8-26.8 609.8-38.9 647.4-38.9Z" opacity="1" transform="matrix(1,0,0,1,0,0)" fill="#ffffff" class="wordmark-text-0" data-fill-palette-color="quaternary" id="text-0"></path></svg></g></svg></g></svg></g></svg></g><g></g></svg></g><defs></defs></svg><rect width="356.12052" height="59.13791332869404" fill="none" stroke="none" visibility="hidden"></rect></g></svg></g></svg>